<svg width="20" height="20" viewBox="0 0 20 20" fill="none" xmlns="http://www.w3.org/2000/svg">
<path d="M6.37499 17.425C6.34999 17.425 6.31665 17.4416 6.29165 17.4416C4.67499 16.6416 3.35832 15.3166 2.54999 13.7C2.54999 13.675 2.56665 13.6416 2.56665 13.6166C3.58332 13.9166 4.63332 14.1416 5.67499 14.3166C5.85832 15.3666 6.07499 16.4083 6.37499 17.425Z" fill="white"/>
<path d="M17.45 13.7083C16.625 15.3666 15.25 16.7083 13.575 17.5166C13.8917 16.4583 14.1583 15.3916 14.3333 14.3166C15.3833 14.1416 16.4167 13.9166 17.4333 13.6166C17.425 13.65 17.45 13.6833 17.45 13.7083Z" fill="white"/>
<path d="M17.5167 6.425C16.4667 6.10834 15.4083 5.85 14.3333 5.66667C14.1583 4.59167 13.9 3.525 13.575 2.48334C15.3 3.30834 16.6917 4.7 17.5167 6.425Z" fill="white"/>
<path d="M6.375 2.57499C6.075 3.59165 5.85834 4.62499 5.68334 5.67499C4.60834 5.84165 3.54167 6.10832 2.48334 6.42499C3.29167 4.74999 4.63334 3.37499 6.29167 2.54999C6.31667 2.54999 6.35 2.57499 6.375 2.57499Z" fill="white"/>
<path d="M12.9083 5.49169C10.975 5.27502 9.02501 5.27502 7.09167 5.49169C7.30001 4.35002 7.56667 3.20835 7.94167 2.10835C7.95834 2.04169 7.95001 1.99169 7.95834 1.92502C8.61667 1.76669 9.29167 1.66669 10 1.66669C10.7 1.66669 11.3833 1.76669 12.0333 1.92502C12.0417 1.99169 12.0417 2.04169 12.0583 2.10835C12.4333 3.21669 12.7 4.35002 12.9083 5.49169Z" fill="white"/>
<path d="M5.49169 12.9083C4.34169 12.7 3.20835 12.4333 2.10835 12.0583C2.04169 12.0417 1.99169 12.05 1.92502 12.0417C1.76669 11.3833 1.66669 10.7083 1.66669 10C1.66669 9.30001 1.76669 8.61667 1.92502 7.96667C1.99169 7.95834 2.04169 7.95834 2.10835 7.94167C3.21669 7.57501 4.34169 7.30001 5.49169 7.09167C5.28335 9.02501 5.28335 10.975 5.49169 12.9083Z" fill="white"/>
<path d="M18.3334 10C18.3334 10.7083 18.2334 11.3833 18.075 12.0417C18.0084 12.05 17.9584 12.0417 17.8917 12.0583C16.7834 12.425 15.65 12.7 14.5084 12.9083C14.725 10.975 14.725 9.02501 14.5084 7.09167C15.65 7.30001 16.7917 7.56667 17.8917 7.94167C17.9584 7.95834 18.0084 7.96667 18.075 7.96667C18.2334 8.62501 18.3334 9.30001 18.3334 10Z" fill="white"/>
<path d="M12.9083 14.5084C12.7 15.6584 12.4333 16.7917 12.0583 17.8917C12.0417 17.9584 12.0417 18.0084 12.0333 18.075C11.3833 18.2334 10.7 18.3334 10 18.3334C9.29167 18.3334 8.61667 18.2334 7.95834 18.075C7.95001 18.0084 7.95834 17.9584 7.94167 17.8917C7.57501 16.7834 7.30001 15.6584 7.09167 14.5084C8.05834 14.6167 9.02501 14.6917 10 14.6917C10.975 14.6917 11.95 14.6167 12.9083 14.5084Z" fill="white"/>
<path d="M13.1361 13.1361C11.0519 13.3991 8.94816 13.3991 6.86391 13.1361C6.60095 11.0519 6.60095 8.94816 6.86391 6.86391C8.94816 6.60095 11.0519 6.60095 13.1361 6.86391C13.3991 8.94816 13.3991 11.0519 13.1361 13.1361Z" fill="white"/>
</svg>
